<?xml version="1.0" standalone="no"?>
<!DOCTYPE svg PUBLIC "-//W3C//DTD SVG 20010904//EN"
 "http://www.w3.org/TR/2001/REC-SVG-20010904/DTD/svg10.dtd">
<svg version="1.0" xmlns="http://www.w3.org/2000/svg"
 width="500.000000pt" height="500.000000pt" viewBox="0 0 500.000000 500.000000"
 preserveAspectRatio="xMidYMid meet">

<g transform="translate(0.000000,500.000000) scale(0.100000,-0.100000)"
fill="#000000" stroke="none">
<path d="M0 2500 l0 -2500 2500 0 2500 0 0 2500 0 2500 -2500 0 -2500 0 0
-2500z m3568 916 c386 -205 709 -379 717 -386 13 -11 15 -90 15 -590 0 -501 2
-579 15 -590 12 -10 15 -45 15 -191 l0 -179 -75 0 -75 0 0 178 c1 140 4 181
15 196 22 29 23 1109 1 1104 -8 -2 -91 -43 -186 -93 l-172 -90 6 -305 c3 -168
7 -361 7 -429 l1 -124 -673 -353 c-371 -194 -680 -353 -687 -354 -7 0 -317
160 -690 354 l-677 355 -3 424 -2 423 -220 118 c-121 65 -222 121 -224 125 -4
6 1372 754 1399 759 14 3 15 -9 13 -93 l-3 -96 -528 -277 c-397 -208 -524
-279 -514 -287 8 -6 249 -136 536 -289 l521 -279 0 -88 c0 -49 -2 -89 -5 -89
-3 0 -181 88 -396 196 -215 107 -394 192 -398 189 -3 -4 -6 -146 -6 -317 l0
-310 589 -314 c323 -173 594 -314 601 -312 7 2 277 138 599 303 l587 300 -7
230 c-4 127 -10 273 -13 326 l-6 97 -375 -199 c-206 -109 -378 -199 -382 -199
-5 0 -8 40 -8 89 l0 89 520 278 c286 154 520 283 521 288 1 6 -237 139 -527
297 -291 158 -529 291 -530 296 -7 27 -10 193 -4 193 4 0 323 -168 708 -374z
m-829 357 c0 -5 -75 -345 -167 -758 l-167 -750 -50 -3 c-28 -1 -66 1 -85 5
l-36 8 168 740 c93 407 170 746 173 753 5 13 165 18 164 5z"/>
</g>
</svg>
